<?xml version="1.0" encoding="UTF-8" standalone="no"?>
<svg
   xmlns:dc="http://purl.org/dc/elements/1.1/"
   xmlns:cc="http://creativecommons.org/ns#"
   xmlns:rdf="http://www.w3.org/1999/02/22-rdf-syntax-ns#"
   xmlns:svg="http://www.w3.org/2000/svg"
   xmlns="http://www.w3.org/2000/svg"
   xmlns:sodipodi="http://sodipodi.sourceforge.net/DTD/sodipodi-0.dtd"
   xmlns:inkscape="http://www.inkscape.org/namespaces/inkscape"
   width="175.7"
   height="29.099991"
   viewBox="0 0 46.487289 7.6993724"
   version="1.1"
   id="svg4689"
   inkscape:version="1.0.1 (3bc2e813f5, 2020-09-07)"
   sodipodi:docname="Paychex_logo(colors_reversed).svg">
  <defs
     id="defs4683" />
  <sodipodi:namedview
     id="base"
     pagecolor="#004b8d"
     bordercolor="#666666"
     borderopacity="1.0"
     inkscape:pageopacity="0"
     inkscape:pageshadow="2"
     inkscape:zoom="4.590727"
     inkscape:cx="87.350027"
     inkscape:cy="14.049984"
     inkscape:document-units="mm"
     inkscape:current-layer="layer1"
     showgrid="false"
     inkscape:window-width="1920"
     inkscape:window-height="1027"
     inkscape:window-x="-8"
     inkscape:window-y="-8"
     inkscape:window-maximized="1"
     fit-margin-top="0"
     fit-margin-left="0"
     fit-margin-right="0"
     fit-margin-bottom="0"
     units="px"
     inkscape:document-rotation="0"
     inkscape:pagecheckerboard="true" />
  <metadata
     id="metadata4686">
    <rdf:RDF>
      <cc:Work
         rdf:about="">
        <dc:format>image/svg+xml</dc:format>
        <dc:type
           rdf:resource="http://purl.org/dc/dcmitype/StillImage" />
        <dc:title></dc:title>
      </cc:Work>
    </rdf:RDF>
  </metadata>
  <g
     inkscape:label="Layer 1"
     inkscape:groupmode="layer"
     id="layer1"
     transform="translate(151.64783,-223.83704)">
    <g
       id="g875">
      <path
         style="fill:#ffffff;stroke-width:0.264583;fill-opacity:1"
         inkscape:connector-curvature="0"
         class="st0"
         d="m -148.26117,225.98016 h 0.74084 c 0.44979,0 0.9525,0.0794 0.9525,0.635 0,0.47625 -0.29104,0.79375 -1.16417,0.79375 h -0.82021 z m -3.25437,5.26521 h 2.14312 l 0.4498,-2.14312 h 1.4552 c 1.85209,0 3.04271,-1.21709 3.04271,-2.64584 0,-1.56104 -0.84666,-2.27541 -2.14312,-2.27541 h -3.46604 z"
         id="path4757" />
      <path
         style="fill:#ffffff;stroke-width:0.264583;fill-opacity:1"
         inkscape:connector-curvature="0"
         class="st0"
         d="m -141.77887,226.5887 v 0 l 0.26458,2.11667 h -1.34938 z m -4.63021,4.65667 h 2.2225 l 0.55562,-1.00542 h 2.30188 l 0.10583,1.00542 h 2.14313 l -1.13771,-7.06437 h -2.14313 z"
         id="path4759" />
      <polygon
         transform="matrix(0.26458333,0,0,0.26458333,-151.51554,223.96933)"
         style="fill:#ffffff;fill-opacity:1"
         class="st0"
         points="55.3,10.7 61.8,0.8 71.4,0.8 58.4,17.6 56.4,27.5 48.2,27.5 50.2,17.7 44.5,0.8 52.7,0.8 "
         id="polygon4761" />
      <path
         style="fill:#fffffd;stroke-width:0.264583;fill-opacity:1"
         inkscape:connector-curvature="0"
         class="st0"
         d="m -127.43846,228.54662 c -0.13229,0.71438 -0.68791,2.8575 -3.62479,2.8575 -2.03729,0 -3.04271,-1.32292 -3.04271,-3.20146 0,-2.27541 1.42875,-4.18041 3.81,-4.18041 1.56104,0 2.96334,0.68791 3.01625,2.80458 h -2.01083 c 0.0265,-0.66146 -0.29104,-1.03188 -0.97896,-1.03188 -1.21708,0 -1.64042,1.37584 -1.64042,2.38125 0,0.58209 0.1323,1.48167 1.13771,1.48167 0.68792,0 1.05834,-0.47625 1.21709,-1.08479 z"
         id="path4763" />
      <polygon
         transform="matrix(0.26458333,0,0,0.26458333,-151.51554,223.96933)"
         style="fill:#ffffff;fill-opacity:1"
         class="st0"
         points="100.6,16.9 98.4,27.5 90.2,27.5 95.8,0.8 104,0.8 102.1,10.1 109.6,10.1 111.5,0.8 119.7,0.8 114.2,27.5 105.9,27.5 108.1,16.9 "
         id="polygon4765" />
      <path
         style="fill:#ffffff;stroke-width:0.264583;fill-opacity:1"
         inkscape:connector-curvature="0"
         class="st0"
         d="m -106.53637,224.181 h -2.56646 l -1.40229,1.82562 -0.68792,-1.82562 h -2.35479 v 0 h -5.715 l -1.48167,7.06437 h 5.45042 0.44979 2.2225 l 1.64042,-1.98437 0.76729,1.98437 h 2.43416 l -1.71979,-3.73062 z m -8.14917,6.40291 0.23812,-1.16416 h -3.73062 l 0.18521,-0.87313 h 3.38666 l 0.34396,-1.69333 h -3.38666 l 0.1852,-0.87313 h 3.65125 l 0.3175,-1.64041 1.53459,3.12208 z"
         id="path4767" />
      <path
         style="fill:#ffffff;stroke-width:0.264583;fill-opacity:1"
         inkscape:connector-curvature="0"
         class="st0"
         d="m -106.24533,224.4985 c 0,-0.26459 0.18521,-0.4498 0.44979,-0.4498 0.23812,0 0.44979,0.18521 0.44979,0.4498 0,0.26458 -0.18521,0.44979 -0.44979,0.44979 -0.26458,0.0265 -0.44979,-0.18521 -0.44979,-0.44979 m -0.10584,0 c 0,0.3175 0.23813,0.52916 0.52917,0.52916 0.29104,0 0.52917,-0.23812 0.52917,-0.52916 0,-0.29105 -0.23813,-0.52917 -0.52917,-0.52917 -0.29104,0 -0.52917,0.23812 -0.52917,0.52917 m 0.3175,0.3175 h 0.10584 v -0.26459 h 0.10583 l 0.15875,0.26459 h 0.10583 l -0.1852,-0.26459 c 0.10583,0 0.15875,-0.0529 0.15875,-0.15875 0,-0.13229 -0.0794,-0.18521 -0.21167,-0.18521 h -0.23813 z m 0.10584,-0.55563 h 0.13229 c 0.0794,0 0.13229,0 0.13229,0.10583 0,0.10584 -0.0794,0.10584 -0.15875,0.10584 h -0.10583 z"
         id="path4769" />
    </g>
  </g>
  <style
     id="style4691"
     type="text/css">
	.st0{fill:#004B8D;}
</style>
</svg>
